<?xml version="1.0" standalone="no"?>
<!DOCTYPE svg PUBLIC "-//W3C//DTD SVG 20010904//EN"
 "http://www.w3.org/TR/2001/REC-SVG-20010904/DTD/svg10.dtd">
<svg version="1.0" xmlns="http://www.w3.org/2000/svg"
 width="175.000000pt" height="175.000000pt" viewBox="0 0 175.000000 175.000000"
 preserveAspectRatio="xMidYMid meet">
<metadata>
Created by potrace 1.11, written by Peter Selinger 2001-2013
</metadata>
<g transform="translate(0.000000,175.000000) scale(0.100000,-0.100000)"
fill="#000000" stroke="none">
<path d="M310 1736 c-146 -31 -255 -134 -291 -275 -15 -58 -17 -128 -17 -576
0 -300 4 -533 10 -565 21 -114 101 -225 194 -271 94 -45 130 -48 664 -48 305
0 527 4 560 11 160 30 278 148 309 309 16 83 9 1104 -8 1149 -57 156 -160 245
-307 269 -89 14 -1046 12 -1114 -3z"/>
</g>
</svg>
