<?xml version="1.0" encoding="UTF-8" standalone="no"?>
<svg width="144px" height="70px" viewBox="0 0 144 70" version="1.1" xmlns="http://www.w3.org/2000/svg" xmlns:xlink="http://www.w3.org/1999/xlink">
    <!-- Generator: Sketch 40.3 (33839) - http://www.bohemiancoding.com/sketch -->
    <title>CQC</title>
    <desc>Created with Sketch.</desc>
    <defs>
        <polygon id="path-1" points="94.1333732 18.0606232 94.1333732 0.0458935843 0.00437367056 0.0458935843 0.00437367056 18.0606232 94.1333732 18.0606232"></polygon>
        <polygon id="path-3" points="0.000239653182 43.7367056 38.9594591 43.7367056 38.9594591 0.166618874 0.000239653182 0.166618874"></polygon>
        <polygon id="path-5" points="0 65.0927998 137.870079 65.0927998 137.870079 0 0 0"></polygon>
    </defs>
    <g id="Components" stroke="none" stroke-width="1" fill="none" fill-rule="evenodd">
        <g id="CQC">
            <g id="logo-cqc" transform="translate(2.000000, 2.000000)">
                <g>
                    <path d="M107.489964,48.5277322 C107.489964,47.8411258 108.059739,47.287527 109.18551,47.287527 C110.308885,47.287527 111.261506,47.8411258 111.377139,47.9166166 L111.985259,46.8309877 C111.890595,46.7548978 110.861884,46.0131712 109.071675,46.0131712 C107.185604,46.0131712 105.851335,47.0604556 105.851335,48.6223952 C105.851335,51.5581467 110.403548,51.1381545 110.403548,53.0236259 C110.403548,53.8462354 109.624675,54.3974378 108.631911,54.3974378 C107.29944,54.3974378 106.364193,53.8078909 106.174867,53.6916591 L105.563752,54.8180291 C105.679983,54.9126921 106.89862,55.7299095 108.728971,55.7299095 C110.537154,55.7299095 112.099094,54.7029956 112.099094,52.9097906 C112.099094,49.9770348 107.489964,50.2987692 107.489964,48.5277322 L107.489964,48.5277322 Z M114.139141,55.4824675 L115.758598,55.4824675 L115.758598,46.2582166 L114.139141,46.2582166 L114.139141,55.4824675 L114.139141,55.4824675 Z M99.6359301,48.5277322 C99.6359301,47.8411258 100.208102,47.287527 101.331476,47.287527 C102.454851,47.287527 103.409269,47.8411258 103.523704,47.9166166 L104.131824,46.8309877 C104.036562,46.7548978 103.008449,46.0131712 101.217641,46.0131712 C99.3327688,46.0131712 97.9973014,47.0604556 97.9973014,48.6223952 C97.9973014,51.5581467 102.550113,51.1381545 102.550113,53.0236259 C102.550113,53.8462354 101.77124,54.3974378 100.779076,54.3974378 C99.4460049,54.3974378 98.5131549,53.8078909 98.3202341,53.6916591 L97.7097176,54.8180291 C97.8265485,54.9126921 99.0445858,55.7299095 100.873739,55.7299095 C102.684918,55.7299095 104.248655,54.7029956 104.248655,52.9097906 C104.248655,49.9770348 99.6359301,50.2987692 99.6359301,48.5277322 L99.6359301,48.5277322 Z M89.0995779,46.0131712 C87.7089903,46.0131712 86.6593094,46.6003215 85.8978114,47.0778305 C85.4802158,46.5068568 84.7930103,46.0131712 83.6324897,46.0131712 C82.1837862,46.0131712 80.9244088,46.8687331 80.8111726,46.9448229 L80.8111726,46.2582166 L79.3624692,46.2582166 L79.3624692,55.4824675 L80.9819255,55.4824675 L80.9819255,48.1448863 C81.1173296,48.0711929 82.2209325,47.38219 83.3443068,47.38219 C83.8979056,47.38219 84.2993247,47.5559386 84.5461675,47.8027813 C85.0236764,48.2994626 85.0051033,49.1382487 85.0051033,50.3748591 L85.0051033,55.4824675 L86.6053874,55.4824675 L86.6053874,50.3191397 C86.6053874,49.5750166 86.6053874,48.5654776 86.4508111,48.1640585 C86.6593094,48.031051 87.7665071,47.38219 88.8898814,47.38219 C89.4410837,47.38219 89.8610759,47.5367663 90.1492589,47.859699 C90.6237722,48.3755524 90.6040008,49.5169007 90.6040008,50.0908701 L90.6040008,55.4824675 L92.2240563,55.4824675 L92.2240563,50.1292146 C92.2240563,48.6409683 92.1863109,47.6889461 91.3097794,46.8124146 C91.0257904,46.5284255 90.3763303,46.0131712 89.0995779,46.0131712 L89.0995779,46.0131712 Z M95.0645456,42.7742585 C94.5115459,42.7742585 94.0723814,43.2146212 94.0723814,43.7652244 C94.0723814,44.3194223 94.5115459,44.7573885 95.0645456,44.7573885 C95.6151488,44.7573885 96.0549124,44.3194223 96.0549124,43.7652244 C96.0549124,43.2146212 95.6151488,42.7742585 95.0645456,42.7742585 L95.0645456,42.7742585 Z M94.2647031,55.4824675 L95.8841595,55.4824675 L95.8841595,46.2582166 L94.2647031,46.2582166 L94.2647031,55.4824675 L94.2647031,55.4824675 Z M74.4699495,46.0131712 C73.0781636,46.0131712 72.0308792,46.6003215 71.2687821,47.0778305 C70.8481908,46.5068568 70.1615844,46.0131712 69.0004647,46.0131712 C67.5517612,46.0131712 66.2929829,46.8687331 66.1797468,46.9448229 L66.1797468,46.2582166 L64.7304442,46.2582166 L64.7304442,55.4824675 L66.3504997,55.4824675 L66.3504997,48.1448863 C66.4835072,48.0711929 67.5877092,47.38219 68.71348,47.38219 C69.2670789,47.38219 69.6678988,47.5559386 69.9153407,47.8027813 C70.3922506,48.2994626 70.3736775,49.1382487 70.3736775,50.3748591 L70.3736775,55.4824675 L71.9745607,55.4824675 L71.9745607,50.3191397 C71.9745607,49.5750166 71.9745607,48.5654776 71.8199844,48.1640585 C72.0308792,48.031051 73.1356804,47.38219 74.2584555,47.38219 C74.8120544,47.38219 75.2326457,47.5367663 75.5172339,47.859699 C75.995342,48.3755524 75.9755706,49.5169007 75.9755706,50.0908701 L75.9755706,55.4824675 L77.5956261,55.4824675 L77.5956261,50.1292146 C77.5956261,48.6409683 77.5572816,47.6889461 76.6783535,46.8124146 C76.3937654,46.5284255 75.7455035,46.0131712 74.4699495,46.0131712 L74.4699495,46.0131712 Z M132.203599,46.0131712 C130.64106,46.0131712 129.479342,46.8501599 129.325364,46.9448229 L129.325364,46.2582166 L127.878458,46.2582166 L127.878458,55.4824675 L129.496117,55.4824675 L129.496117,48.1856273 C129.574604,48.125714 130.735723,47.38219 131.918412,47.38219 C132.488786,47.38219 132.965696,47.5936839 133.213138,47.8411258 C133.688251,48.3180357 133.70922,49.0801328 133.70922,50.2430499 L133.70922,55.4824675 L135.32628,55.4824675 L135.32628,50.1292146 C135.32628,48.6409683 135.287936,47.6889461 134.412602,46.8124146 C134.126816,46.5284255 133.478554,46.0131712 132.203599,46.0131712 L132.203599,46.0131712 Z M121.876344,54.339921 C120.295233,54.339921 119.114342,52.9289629 119.114342,50.8152218 C119.114342,48.7398253 120.161626,47.3480394 121.819427,47.3480394 C123.401138,47.3480394 124.564654,48.774575 124.564654,50.8901135 C124.564654,52.9882771 123.591662,54.339921 121.876344,54.339921 L121.876344,54.339921 Z M121.914689,46.0131712 C119.229375,46.0131712 117.494885,47.9735342 117.494885,50.8727386 C117.494885,53.7863221 119.209604,55.6933623 121.781681,55.6933623 C124.448422,55.6933623 126.181714,53.767749 126.181714,50.8727386 C126.181714,47.9166166 124.488564,46.0131712 121.914689,46.0131712 L121.914689,46.0131712 Z M50.066066,54.2069135 C47.2645203,54.2069135 45.510259,52.1848398 45.510259,49.0801328 C45.510259,45.8969394 47.6060261,44.0096706 50.1990735,44.0096706 C51.9898819,44.0096706 53.1132562,44.7717677 53.2678325,44.867629 L54.0083608,43.6867379 C53.8561811,43.5345582 52.6195706,42.5058469 50.1044105,42.5058469 C46.5976853,42.5058469 43.757196,44.9838608 43.757196,49.2335108 C43.757196,53.3279854 46.4443073,55.7299095 49.8551712,55.7299095 C52.4296455,55.7299095 53.9891886,54.5496175 54.1221961,54.3974378 L53.3816678,53.2165467 C53.2462637,53.2926366 51.8952189,54.2069135 50.066066,54.2069135 L50.066066,54.2069135 Z M114.939583,42.7742585 C114.385984,42.7742585 113.949216,43.2146212 113.949216,43.7652244 C113.949216,44.3194223 114.385984,44.7573885 114.939583,44.7573885 C115.490785,44.7573885 115.92995,44.3194223 115.92995,43.7652244 C115.92995,43.2146212 115.490785,42.7742585 114.939583,42.7742585 L114.939583,42.7742585 Z M58.9979401,54.339921 C57.4186256,54.339921 56.2359371,52.9289629 56.2359371,50.8152218 C56.2359371,48.7398253 57.2832215,47.3480394 58.9410224,47.3480394 C60.5221343,47.3480394 61.6862496,48.774575 61.6862496,50.8901135 C61.6862496,52.9882771 60.7150551,54.339921 58.9979401,54.339921 L58.9979401,54.339921 Z M59.0356854,46.0131712 C56.3497724,46.0131712 54.6164808,47.9735342 54.6164808,50.8727386 C54.6164808,53.7863221 56.3311993,55.6933623 58.9026779,55.6933623 C61.5700178,55.6933623 63.305706,53.767749 63.305706,50.8727386 C63.305706,47.9166166 61.6101597,46.0131712 59.0356854,46.0131712 L59.0356854,46.0131712 Z" id="Fill-1" fill="#FEFEFE"></path>
                    <g id="Group-5" transform="translate(43.736706, 25.550025)">
                        <mask id="mask-2" fill="white">
                            <use xlink:href="#path-1"></use>
                        </mask>
                        <g id="Clip-4"></g>
                        <path d="M43.379203,11.7673307 C41.3960729,11.7673307 39.8856587,10.1269047 39.8856587,7.48293094 C39.8856587,4.85513381 41.2061478,3.00561038 43.2294198,3.00561038 C45.3431608,3.00561038 46.7613085,4.79821617 46.7613085,7.29300579 C46.7613085,9.31328212 45.9872287,11.7673307 43.379203,11.7673307 L43.379203,11.7673307 Z M49.4610016,7.30918238 C49.4610016,3.53464477 47.042901,0.813982031 43.3222854,0.813982031 C39.6765613,0.813982031 37.1853665,3.4387835 37.1853665,7.30918238 C37.1853665,11.2520764 39.6226394,13.9511703 43.2174371,14.0134801 C43.2174371,14.0134801 43.3606299,14.0176741 43.3720134,14.0176741 C45.1178868,14.0566177 46.326338,14.6419706 47.0956247,15.5921955 C47.3574458,15.4208434 49.2525033,13.7894044 49.2525033,13.7894044 C49.2525033,13.7894044 48.5970519,13.0027428 47.0770516,12.7990376 C48.5593065,11.6493015 49.4610016,9.73806738 49.4610016,7.30918238 L49.4610016,7.30918238 Z M85.833165,15.9894206 C85.098628,15.9894206 84.5360421,15.7246039 84.4036338,15.6706819 L83.6505236,17.4752703 C83.7266135,17.5136149 84.6103346,18.0606232 85.9661725,18.0606232 C87.4903667,18.0606232 88.2788257,17.49624 88.6760508,17.1008122 C89.3332997,16.4429643 89.749098,15.594592 90.4638636,13.7678356 L94.1335529,4.41177542 L91.6303754,4.41177542 L89.3147266,10.9057775 L86.8301222,4.41177542 L84.1394161,4.41177542 L88.0182029,13.6755692 C87.8660231,14.0877726 87.545487,15.0679541 87.0937407,15.5185021 C86.792976,15.819866 86.3981474,15.9894206 85.833165,15.9894206 L85.833165,15.9894206 Z M81.8111855,11.8104683 C80.6997938,11.8104683 80.6422771,10.9626951 80.6422771,10.2287573 L80.6422771,6.52072342 L83.2778629,6.52072342 L83.2778629,4.41177542 L80.6422771,4.41177542 L80.6422771,1.83430545 L78.1043499,1.83430545 L78.1043499,4.41177542 L76.5034666,4.41177542 L76.5034666,6.52072342 L78.1043499,6.52072342 L78.1043499,10.1358917 C78.1043499,11.4360102 78.1043499,12.3197313 78.8952054,13.1093885 C79.5147088,13.7306894 80.4553476,13.936192 81.2839485,13.936192 C82.6565621,13.936192 83.5408823,13.3921793 83.6145757,13.3358608 L82.9770982,11.5851943 C82.8087418,11.642711 82.3929436,11.8104683 81.8111855,11.8104683 L81.8111855,11.8104683 Z M72.701968,13.6755692 L75.2422918,13.6755692 L75.2422918,4.41177542 L72.701968,4.41177542 L72.701968,13.6755692 Z M73.9619446,3.26323755 C74.770175,3.26323755 75.4112472,2.62576008 75.4112472,1.8151332 C75.4112472,1.00510544 74.770175,0.365830582 73.9619446,0.365830582 C73.152516,0.365830582 72.5114438,1.00510544 72.5114438,1.8151332 C72.5114438,2.62576008 73.152516,3.26323755 73.9619446,3.26323755 L73.9619446,3.26323755 Z M68.8279744,13.6755692 L71.3688972,13.6755692 L71.3688972,0.0458935843 L68.8279744,0.0458935843 L68.8279744,13.6755692 Z M61.9954621,10.7374211 C61.9954621,9.57031015 63.161974,9.2875194 64.8006026,9.2875194 L65.194233,9.2875194 L65.194233,11.3982648 C65.0827943,11.4527859 64.4608942,11.9596524 63.4255925,11.9596524 C62.8054899,11.9596524 61.9954621,11.696633 61.9954621,10.7374211 L61.9954621,10.7374211 Z M65.3823607,13.0147255 L65.3823607,13.6755692 L67.5835752,13.6755692 L67.5835752,8.12160667 C67.5835752,6.91555203 67.6057431,5.95574104 66.8328616,5.1840578 C65.92877,4.28116444 64.5933026,4.14995432 63.8030463,4.14995432 C61.674926,4.14995432 60.4137511,5.03307629 60.2837393,5.14571329 L61.1285168,6.76636793 C61.2621234,6.68848064 62.3711185,6.08755029 63.5939489,6.08755029 C64.2919388,6.08755029 64.7059396,6.25710492 64.9114422,6.46380579 C65.1750607,6.72982082 65.194233,6.99164192 65.194233,7.55602516 L64.9306145,7.55602516 C63.8030463,7.55602516 59.7750754,7.61294279 59.7750754,10.9057775 C59.7750754,12.6588405 60.9218159,13.8816709 62.7677445,13.8816709 C64.2356203,13.8816709 65.2134052,13.129759 65.3823607,13.0147255 L65.3823607,13.0147255 Z M53.9880502,13.936192 C55.303147,13.936192 56.4522841,13.0920137 56.6020673,12.9769801 L56.6020673,13.6755692 L58.7661355,13.6755692 L58.7661355,4.41177542 L56.2264109,4.41177542 L56.2264109,11.1903657 C56.0748303,11.3036018 55.3229184,11.7727229 54.5122916,11.7727229 C53.9119603,11.7727229 53.6285704,11.5474489 53.5177308,11.4360102 C53.1780225,11.0957027 53.1211048,10.4941732 53.1211048,9.2875194 L53.1211048,4.41177542 L50.5795828,4.41177542 L50.5795828,9.40195379 C50.5795828,10.6074093 50.5418375,11.9979969 51.5777383,13.0332986 C52.179867,13.6372246 53.0096661,13.936192 53.9880502,13.936192 L53.9880502,13.936192 Z M29.1803511,8.04611592 C29.3672806,6.89518151 30.0826454,6.03183093 31.2323815,6.03183093 C32.7949202,6.03183093 32.9818497,7.53865031 32.9818497,8.04611592 L29.1803511,8.04611592 Z M31.1754639,4.14995432 C28.5410763,4.14995432 26.7346904,6.25710492 26.7346904,9.10058992 C26.7346904,11.7918951 28.3355737,13.936192 31.3462168,13.936192 C33.397648,13.936192 34.8086061,12.9769801 34.8625281,12.922459 L34.0363237,11.3036018 C33.6396977,11.4905313 32.7374035,11.9596524 31.5696933,11.9596524 C29.7261612,11.9596524 29.161778,10.5486943 29.1989242,9.87167403 L35.2980977,9.87167403 C35.2980977,9.74226131 35.335244,9.47684541 35.335244,9.08201679 C35.335244,6.07017544 33.8841439,4.14995432 31.1754639,4.14995432 L31.1754639,4.14995432 Z M23.1788363,7.59436967 C23.4616271,7.18156707 24.2309138,6.25710492 25.7772759,6.25710492 C25.9072878,6.25710492 26.2667676,6.29365203 26.3428575,6.31402255 L26.926413,4.39260316 C26.8688962,4.37642658 26.5297869,4.14995432 25.8695424,4.14995432 C24.0242129,4.14995432 22.8774725,5.44707716 22.8013826,5.58008468 L22.8013826,4.41177542 L20.6379135,4.41177542 L20.6379135,13.6755692 L23.1788363,13.6755692 L23.1788363,7.59436967 Z M17.0491071,11.3982648 C16.9382675,11.4527859 16.3157683,11.9596524 15.2804666,11.9596524 C14.660364,11.9596524 13.8503362,11.696633 13.8503362,10.7374211 C13.8503362,9.57031015 15.0168481,9.2875194 16.6554767,9.2875194 L17.0491071,9.2875194 L17.0491071,11.3982648 Z M11.6299495,10.9057775 C11.6299495,12.6588405 12.77669,13.8816709 14.6226186,13.8816709 C16.0898952,13.8816709 17.0688785,13.129759 17.2396314,13.0147255 L17.2396314,13.6755692 L19.4408458,13.6755692 L19.4408458,8.12160667 C19.4408458,6.91555203 19.4600181,5.95574104 18.6883348,5.1840578 C17.7836441,4.28116444 16.4487759,4.14995432 15.6579204,4.14995432 C13.5298001,4.14995432 12.2686252,5.03307629 12.1386134,5.14571329 L12.9833909,6.76636793 C13.1163984,6.68848064 14.2283891,6.08755029 15.4512195,6.08755029 C16.1468128,6.08755029 16.5602146,6.25710492 16.7669155,6.46380579 C17.030534,6.72982082 17.0491071,6.99164192 17.0491071,7.55602516 L16.7854886,7.55602516 C15.6579204,7.55602516 11.6299495,7.61294279 11.6299495,10.9057775 L11.6299495,10.9057775 Z M6.27250263,13.9757348 C9.11299197,13.9757348 10.7516206,12.5641775 10.9032012,12.413196 L9.79180961,10.6259824 C9.58510874,10.7374211 8.24844312,11.6612842 6.59064223,11.6612842 C4.20189915,11.6612842 2.67770491,9.94896218 2.67770491,7.33075117 C2.67770491,4.6586182 4.44634539,3.05713581 6.72364975,3.05713581 C8.54980699,3.05713581 9.56653561,3.92288293 9.71631885,4.0169468 L10.8654559,2.26747858 C10.7324483,2.13566933 9.4335281,0.818175962 6.61221102,0.818175962 C2.86583266,0.818175962 0.00437367056,3.32195258 0.00437367056,7.50150406 C0.00437367056,11.5288758 2.73402341,13.9757348 6.27250263,13.9757348 L6.27250263,13.9757348 Z" id="Fill-3" fill="#FEFEFE" mask="url(#mask-2)"></path>
                    </g>
                    <g id="Group-8" transform="translate(0.000000, 21.356094)">
                        <mask id="mask-4" fill="white">
                            <use xlink:href="#path-3"></use>
                        </mask>
                        <g id="Clip-7"></g>
                        <path d="M19.0496719,34.1470435 C23.9895231,33.139901 28.022287,29.6193958 29.7969188,24.9659301 C29.7867336,24.9593396 29.7729535,24.9617362 29.7603717,24.9737188 C27.832961,28.6919379 23.9559717,31.2364556 19.4792503,31.2364556 C13.0805103,31.2364556 7.89621285,26.0479642 7.89621285,19.6486251 C7.89621285,13.2510835 13.0805103,8.06379034 19.4792503,8.06379034 C23.9559717,8.06379034 27.8341593,10.6101054 29.76157,14.3271262 C29.7741518,14.3373115 29.7873327,14.3421046 29.7969188,14.3331176 C28.022287,9.67905278 23.9883249,6.15854755 19.0496719,5.15140505 C19.2114378,5.14601285 19.3714063,5.14062066 19.5343705,5.14062066 C27.4668908,5.14062066 33.8961865,11.635821 33.8961865,19.6486251 C33.8961865,27.6644249 27.4668908,34.1596253 19.5343705,34.1596253 C19.3714063,34.1596253 19.2114378,34.1530348 19.0496719,34.1470435 M30.7231784,35.5562042 C35.7049689,32.0261128 38.9594591,26.2187171 38.9594591,19.6486251 C38.9594591,8.88939555 30.2378807,0.166618874 19.4792503,0.166618874 C8.72002066,0.166618874 0.000239653182,8.88939555 0.000239653182,19.6486251 C0.000239653182,30.4126478 8.72002066,39.1330279 19.4792503,39.1330279 L20.0340474,39.1330279 C25.2153492,39.2216996 28.7759963,40.9412112 31.0497059,43.7367655 C31.8136004,43.2358904 37.3346105,38.4805721 37.3346105,38.4805721 C37.3346105,38.4805721 35.3574718,36.0930273 30.7231784,35.5562042" id="Fill-6" fill="#FEFEFE" mask="url(#mask-4)"></path>
                    </g>
                    <path d="M4.35713449,1.82783482 C4.01263305,1.60315996 3.60881743,1.54324666 2.59029141,1.54324666 L1.30215556,1.54324666 L1.30215556,5.25906924 L1.93124516,5.25906924 C3.36916425,5.25906924 5.04613739,5.31898254 5.04613739,3.3712013 C5.04613739,2.66722008 4.80648421,2.12740129 4.35713449,1.82783482 L4.35713449,1.82783482 Z M5.8244111,10.638684 L4.97124577,8.37575887 C4.59678768,7.40216782 4.31219952,6.36806434 3.11393361,6.24823775 C2.81496627,6.2182811 2.33565991,6.20330278 1.58674372,6.20330278 L1.30215556,6.20330278 L1.30215556,10.638684 L0.104488787,10.638684 L0.104488787,0.643948099 L2.66518303,0.643948099 C4.04258969,0.643948099 4.62674432,0.749395499 5.18094231,1.07831949 C5.85496688,1.48333337 6.2444033,2.27718453 6.2444033,3.23639639 C6.2444033,4.65993629 5.57037873,5.46936491 4.14743796,5.76893139 C5.16596398,6.05351954 5.5098663,6.50286925 6.2444033,8.43567216 L7.0825903,10.638684 L5.8244111,10.638684 Z" id="Fill-9" fill="#FEFEFE"></path>
                    <path d="M10.9298027,4.30009704 C9.86634174,4.30009704 9.17793798,5.04961236 9.05811139,6.47255313 L12.382101,6.35272654 C12.382101,4.92978577 11.9027947,4.30009704 10.9298027,4.30009704 L10.9298027,4.30009704 Z M8.99819809,7.20709013 L8.99819809,7.46172163 C8.99819809,9.02006645 9.65664521,9.7845601 10.8399328,9.7845601 C11.5139574,9.7845601 12.098112,9.64975518 13.2658221,9.25971963 L13.4755187,9.94932166 C12.0082421,10.6233462 11.3941308,10.8030861 10.5553446,10.8030861 C8.8783715,10.8030861 7.79993219,9.49937281 7.79993219,7.38683002 C7.79993219,4.92978577 8.9382848,3.41637593 10.8099761,3.41637593 C12.5917976,3.41637593 13.5204536,4.55472854 13.5204536,6.83263203 L13.5204536,7.20709013 L8.99819809,7.20709013 Z" id="Fill-11" fill="#FEFEFE"></path>
                    <path d="M19.406875,4.91444797 C18.3733706,4.52501155 18.059425,4.4351416 17.550162,4.4351416 C16.486701,4.4351416 15.887568,5.34941849 15.887568,6.98265492 C15.887568,8.81001043 16.4118094,9.66437403 17.4752703,9.66437403 C17.9395984,9.66437403 18.3733706,9.55952576 19.406875,9.15511102 L19.406875,4.91444797 Z M19.6764848,13.215435 C19.1971785,13.6048715 18.4937964,13.8001888 17.6699886,13.8001888 C17.0558773,13.8001888 16.4118094,13.7103189 15.2440992,13.4700665 L15.3489475,12.751107 C16.2021128,12.8559553 16.6963975,12.8859119 17.2056605,12.8859119 C18.2235874,12.8859119 18.8826337,12.6462587 19.1522435,12.1519741 C19.36194,11.7918951 19.406875,11.417437 19.406875,10.2790844 L19.406875,9.87407056 C18.5531105,10.3689544 17.7448802,10.6685209 17.1008122,10.6685209 C15.5736224,10.6685209 14.6899012,9.27493761 14.6899012,7.07252487 C14.6899012,4.91444797 15.7377848,3.41601645 17.2655738,3.41601645 C18.0294683,3.41601645 18.7628071,3.83600865 19.4368316,4.19548842 L19.4368316,3.58077801 L20.515271,3.58077801 L20.515271,10.173637 C20.515271,12.1064399 20.3654877,12.6612371 19.6764848,13.215435 L19.6764848,13.215435 Z" id="Fill-13" fill="#FEFEFE"></path>
                    <path d="M26.9703294,10.6383845 L26.9703294,10.0692082 C25.9524025,10.5485145 25.1585513,10.803146 24.5294617,10.803146 C23.8111013,10.803146 23.2718817,10.5634929 22.9423586,10.113544 C22.6427921,9.70912926 22.5828788,9.37960613 22.5828788,8.27061104 L22.5828788,3.58119741 L23.6906756,3.58119741 L23.6906756,7.91113126 C23.6906756,8.96021307 23.6313614,9.78462001 24.8739632,9.78462001 C25.4730961,9.78462001 26.207034,9.6498151 26.9403728,9.37960613 L26.9403728,3.58119741 L28.0487687,3.58119741 L28.0487687,10.6383845 L26.9703294,10.6383845 Z" id="Fill-15" fill="#FEFEFE"></path>
                    <mask id="mask-6" fill="white">
                        <use xlink:href="#path-5"></use>
                    </mask>
                    <g id="Clip-18"></g>
                    <polygon id="Fill-17" fill="#FEFEFE" mask="url(#mask-6)" points="30.2064861 10.6382047 31.3148821 10.6382047 31.3148821 0 30.2064861 0"></polygon>
                    <path d="M36.97567,7.11734001 C34.6995639,7.28210157 34.1753226,7.6116247 34.1753226,8.63074985 C34.1753226,9.42460102 34.5497807,9.82901576 35.1339353,9.82901576 C35.7780032,9.82901576 36.97567,9.30477443 36.97567,9.30477443 L36.97567,7.11734001 Z M37.0056266,10.6384444 L37.0056266,10.0243331 C36.1069272,10.5335961 35.4784367,10.8032059 34.8343688,10.8032059 C33.9206911,10.8032059 33.0225908,10.0992247 33.0225908,8.60079321 C33.0225908,7.46184146 33.5168754,6.78781689 34.3550624,6.57812035 C34.8942821,6.44331544 35.5982633,6.39778133 36.97567,6.39778133 L36.97567,6.11319318 C36.97567,4.94488392 37.0355833,4.42004345 35.6581766,4.42004345 C35.118957,4.42004345 34.4299541,4.49493507 33.5618104,4.65969664 L33.4419838,3.89580212 C34.5497807,3.56627899 35.3885668,3.41649576 36.137483,3.41649576 C36.8858,3.41649576 37.4100414,3.61061483 37.7096079,4.00065039 C38.0091743,4.37510848 38.084066,4.80947987 38.084066,6.09821486 L38.084066,10.6384444 L37.0056266,10.6384444 Z" id="Fill-19" fill="#FEFEFE" mask="url(#mask-6)"></path>
                    <path d="M41.7693328,10.7881677 C41.1851781,10.7881677 40.7508067,10.5485145 40.5261319,10.0991648 C40.3919261,9.82895585 40.3613703,9.52938937 40.3613703,8.70558156 L40.3613703,4.39002689 L39.1637035,4.39002689 L39.1637035,3.77591562 L40.3613703,3.6411107 L40.3613703,1.70830779 L41.4697663,1.70830779 L41.4697663,3.58119741 L43.4463059,3.58119741 L43.4463059,4.39002689 L41.4697663,4.39002689 L41.4697663,8.19571942 C41.4697663,9.4245411 41.4697663,9.43951943 41.5746145,9.61925931 C41.6794628,9.78462001 41.8592027,9.85951163 42.1288125,9.85951163 C42.5032706,9.85951163 42.8777287,9.78462001 43.4762625,9.60428099 L43.6859591,10.293883 C42.8621513,10.6533628 42.3385091,10.7881677 41.7693328,10.7881677" id="Fill-20" fill="#FEFEFE" mask="url(#mask-6)"></path>
                    <path d="M47.532153,4.30009704 C46.4692911,4.30009704 45.7802882,5.04961236 45.6604616,6.47255313 L48.9844513,6.35272654 C48.9844513,4.92978577 48.505744,4.30009704 47.532153,4.30009704 L47.532153,4.30009704 Z M45.6005483,7.20709013 L45.6005483,7.46172163 C45.6005483,9.02006645 46.2595946,9.7845601 47.442283,9.7845601 C48.1163076,9.7845601 48.7004622,9.64975518 49.8681724,9.25971963 L50.0778689,9.94932166 C48.6105923,10.6233462 47.996481,10.8030861 47.1576949,10.8030861 C45.4807217,10.8030861 44.4022824,9.49937281 44.4022824,7.38683002 C44.4022824,4.92978577 45.540635,3.41637593 47.4123264,3.41637593 C49.1947469,3.41637593 50.1228039,4.55472854 50.1228039,6.83263203 L50.1228039,7.20709013 L45.6005483,7.20709013 Z" id="Fill-21" fill="#FEFEFE" mask="url(#mask-6)"></path>
                    <path d="M56.0540404,4.91444797 C54.9911785,4.52501155 54.6616554,4.4351416 54.1523924,4.4351416 C53.0889314,4.4351416 52.4903976,5.34941849 52.4903976,7.04256822 C52.4903976,8.94541448 53.0140398,9.79917894 54.0775008,9.79917894 C54.5568071,9.79917894 55.0361135,9.69433067 56.0540404,9.28991593 L56.0540404,4.91444797 Z M56.083997,10.6385642 L56.083997,10.0088755 C55.1858967,10.5187376 54.3471106,10.8033258 53.7030427,10.8033258 C52.1758528,10.8033258 51.2921317,9.42472084 51.2921317,7.13243816 C51.2921317,4.91444797 52.3406143,3.41601645 53.8678042,3.41601645 C54.6316987,3.41601645 55.3806149,3.82043119 56.0540404,4.19548842 L56.0540404,-0.000239653182 L57.1624363,-0.000239653182 L57.1624363,10.6385642 L56.083997,10.6385642 Z" id="Fill-22" fill="#FEFEFE" mask="url(#mask-6)"></path>
                    <path d="M66.1494906,4.42004345 C65.6851625,4.42004345 65.2364119,4.52489172 64.172951,4.91432814 L64.172951,9.2897961 C65.2507911,9.69421085 65.5653359,9.78467992 66.0745989,9.78467992 C67.1380599,9.78467992 67.7371929,8.87040304 67.7371929,7.17725331 C67.7371929,5.27440705 67.2129516,4.42004345 66.1494906,4.42004345 M66.3591871,10.8032059 C65.5653359,10.8032059 64.8164197,10.3688346 64.1429943,10.0093548 L64.1429943,10.6384444 L63.064555,10.6384444 L63.064555,0.000239653182 L64.172951,0.000239653182 L64.172951,4.1953686 C65.1010079,3.68550645 65.8798807,3.41649576 66.5239487,3.41649576 C68.0511386,3.41649576 68.9348597,4.79510068 68.9348597,7.08738336 C68.9348597,9.30477443 67.8869761,10.8032059 66.3591871,10.8032059" id="Fill-23" fill="#FEFEFE" mask="url(#mask-6)"></path>
                    <path d="M72.9947643,11.7772763 C72.3812522,13.3955344 71.9912166,13.7550142 70.7785715,13.7550142 C70.52394,13.7550142 70.3142435,13.7400359 69.969742,13.6951009 L70.0602111,12.9306072 C70.2693085,12.9461847 70.3891351,12.961163 70.5095608,12.961163 C71.5119102,12.961163 71.5574443,12.9012497 72.1859348,11.2823925 L72.470523,10.5484546 L69.6557964,3.58113749 L70.8983981,3.58113749 L73.0552767,9.13989304 L75.0312172,3.58113749 L76.0946782,3.58113749 L72.9947643,11.7772763 Z" id="Fill-24" fill="#FEFEFE" mask="url(#mask-6)"></path>
                </g>
            </g>
        </g>
    </g>
</svg>