<svg id="Layer_1" data-name="Layer 1" xmlns="http://www.w3.org/2000/svg" viewBox="0 0 83.86 54.13"><defs><style>.cls-1{fill:#fefefe;}.cls-2{fill:#fff;}</style></defs><title>NHS-logo-in-partnership</title><g id="Components"><g id="NHS"><g id="Group"><polygon id="Fill-8" class="cls-1" points="0 10.78 1.35 10.78 1.35 0.56 0 0.56 0 10.78"/><path id="Fill-10" class="cls-1" d="M13.89,5.19l0,1A2.77,2.77,0,0,1,16.21,5q2.41,0,2.43,2.72v5h-1.3v-5A1.75,1.75,0,0,0,17,6.54a1.5,1.5,0,0,0-1.15-.39,1.88,1.88,0,0,0-1.11.34,2.29,2.29,0,0,0-.74.88v5.41h-1.3V5.19h1.23Z" transform="translate(-9.29 -2)"/><path id="Fill-11" class="cls-1" d="M29,8.92a3.36,3.36,0,0,0-.55-2,1.76,1.76,0,0,0-1.5-.74,1.91,1.91,0,0,0-1.77,1v3.63a1.91,1.91,0,0,0,1.78,1,1.76,1.76,0,0,0,1.48-.74A3.67,3.67,0,0,0,29,8.92h0Zm1.3,0.15a4.55,4.55,0,0,1-.79,2.79,2.54,2.54,0,0,1-2.15,1.06A2.79,2.79,0,0,1,25.16,12V15.7h-1.3V5.19h1.19L25.12,6a2.68,2.68,0,0,1,2.2-1,2.59,2.59,0,0,1,2.17,1A4.6,4.6,0,0,1,30.28,9V9.07Z" transform="translate(-9.29 -2)"/><path id="Fill-12" class="cls-1" d="M34.15,11.79a2.29,2.29,0,0,0,1.16-.32,1.92,1.92,0,0,0,.79-0.82V9.1h-1q-2.39,0-2.39,1.4a1.18,1.18,0,0,0,.41,1,1.56,1.56,0,0,0,1,.34h0Zm2.16,1a2.72,2.72,0,0,1-.18-0.8,2.9,2.9,0,0,1-2.16.94,2.68,2.68,0,0,1-1.84-.64,2.06,2.06,0,0,1-.72-1.61,2.15,2.15,0,0,1,.9-1.84,4.25,4.25,0,0,1,2.54-.66H36.1V7.58A1.46,1.46,0,0,0,35.7,6.5a1.64,1.64,0,0,0-1.2-.4,1.9,1.9,0,0,0-1.17.35,1,1,0,0,0-.47.85H31.55a1.79,1.79,0,0,1,.4-1.1,2.75,2.75,0,0,1,1.1-.84A3.68,3.68,0,0,1,34.57,5a3,3,0,0,1,2.06.66,2.37,2.37,0,0,1,.77,1.81V11a4.27,4.27,0,0,0,.27,1.66v0.11H36.31Z" transform="translate(-9.29 -2)"/><path id="Fill-13" class="cls-1" d="M42.87,6.35a3.87,3.87,0,0,0-.64,0A1.71,1.71,0,0,0,40.5,7.39v5.39H39.2V5.19h1.26l0,0.88A2,2,0,0,1,42.3,5a1.33,1.33,0,0,1,.58.1V6.35Z" transform="translate(-9.29 -2)"/><path id="Fill-14" class="cls-1" d="M46.14,3.35V5.19h1.42v1H46.14v4.72a1.05,1.05,0,0,0,.19.69,0.8,0.8,0,0,0,.65.23,3.14,3.14,0,0,0,.62-0.08v1a3.77,3.77,0,0,1-1,.14,1.62,1.62,0,0,1-1.31-.53,2.26,2.26,0,0,1-.44-1.5V6.19H43.46v-1h1.38V3.35h1.3Z" transform="translate(-9.29 -2)"/><path id="Fill-15" class="cls-1" d="M50,5.19l0,1A2.77,2.77,0,0,1,52.31,5q2.41,0,2.43,2.72v5h-1.3v-5a1.75,1.75,0,0,0-.38-1.21,1.5,1.5,0,0,0-1.15-.39,1.88,1.88,0,0,0-1.11.34,2.29,2.29,0,0,0-.74.88v5.41h-1.3V5.19H50Z" transform="translate(-9.29 -2)"/><path id="Fill-16" class="cls-1" d="M59.48,6.11a1.73,1.73,0,0,0-1.32.57,2.78,2.78,0,0,0-.66,1.6H61.3V8.19a2.47,2.47,0,0,0-.53-1.53,1.63,1.63,0,0,0-1.29-.54m0.16,6.81a3.32,3.32,0,0,1-2.51-1,3.77,3.77,0,0,1-1-2.71V9a4.55,4.55,0,0,1,.43-2,3.37,3.37,0,0,1,1.21-1.39A3,3,0,0,1,59.48,5a2.85,2.85,0,0,1,2.3,1,4.22,4.22,0,0,1,.82,2.79V9.36H57.45a2.7,2.7,0,0,0,.66,1.81,2.06,2.06,0,0,0,1.6.69,2.27,2.27,0,0,0,1.17-.28,3,3,0,0,0,.84-0.74l0.79,0.62a3.19,3.19,0,0,1-2.86,1.47" transform="translate(-9.29 -2)"/><path id="Fill-17" class="cls-1" d="M67.65,6.35a3.87,3.87,0,0,0-.64,0,1.71,1.71,0,0,0-1.73,1.09v5.39H64V5.19h1.26l0,0.88a2,2,0,0,1,1.81-1,1.33,1.33,0,0,1,.58.1V6.35Z" transform="translate(-9.29 -2)"/><path id="Fill-18" class="cls-1" d="M73.08,10.77a1,1,0,0,0-.4-0.82,3.82,3.82,0,0,0-1.38-.5,6.57,6.57,0,0,1-1.57-.51,2.23,2.23,0,0,1-.86-0.7,1.68,1.68,0,0,1-.28-1,2,2,0,0,1,.79-1.58,3.09,3.09,0,0,1,2-.65,3.18,3.18,0,0,1,2.1.67,2.12,2.12,0,0,1,.8,1.71H73a1.17,1.17,0,0,0-.45-0.92,1.7,1.7,0,0,0-1.14-.39,1.78,1.78,0,0,0-1.11.31,1,1,0,0,0-.4.81,0.79,0.79,0,0,0,.37.71,4.57,4.57,0,0,0,1.34.46,7,7,0,0,1,1.58.52,2.3,2.3,0,0,1,.9.73,1.79,1.79,0,0,1,.29,1,1.94,1.94,0,0,1-.81,1.63,3.42,3.42,0,0,1-2.11.61,3.83,3.83,0,0,1-1.61-.32,2.63,2.63,0,0,1-1.1-.9,2.18,2.18,0,0,1-.4-1.25h1.3a1.34,1.34,0,0,0,.52,1,2,2,0,0,0,1.29.38,2.09,2.09,0,0,0,1.18-.3,0.92,0.92,0,0,0,.45-0.8" transform="translate(-9.29 -2)"/><path id="Fill-19" class="cls-1" d="M77.14,6.11A2.76,2.76,0,0,1,79.39,5q2.41,0,2.43,2.72v5h-1.3v-5a1.75,1.75,0,0,0-.38-1.21A1.5,1.5,0,0,0,79,6.15a1.88,1.88,0,0,0-1.11.34,2.29,2.29,0,0,0-.74.88v5.41h-1.3V2h1.3V6.11Z" transform="translate(-9.29 -2)"/><path id="Fill-20" class="cls-1" d="M83.6,12.78h1.3V5.19H83.6v7.6ZM83.49,3.17a0.78,0.78,0,0,1,.19-0.53,0.73,0.73,0,0,1,.57-0.22,0.74,0.74,0,0,1,.58.22,0.77,0.77,0,0,1,.2.53,0.74,0.74,0,0,1-.2.53,0.75,0.75,0,0,1-.58.21,0.74,0.74,0,0,1-.57-0.21,0.75,0.75,0,0,1-.19-0.53h0Z" transform="translate(-9.29 -2)"/><path id="Fill-21" class="cls-1" d="M91.85,8.92a3.36,3.36,0,0,0-.55-2,1.76,1.76,0,0,0-1.5-.74A1.91,1.91,0,0,0,88,7.2v3.63a1.91,1.91,0,0,0,1.78,1,1.76,1.76,0,0,0,1.48-.74,3.67,3.67,0,0,0,.55-2.2h0Zm1.3,0.15a4.55,4.55,0,0,1-.79,2.79,2.54,2.54,0,0,1-2.15,1.06A2.79,2.79,0,0,1,88,12V15.7h-1.3V5.19h1.19L88,6a2.68,2.68,0,0,1,2.2-1,2.59,2.59,0,0,1,2.17,1A4.6,4.6,0,0,1,93.15,9V9.07Z" transform="translate(-9.29 -2)"/></g><path class="cls-2" d="M9.29,56.13V22.18H93.15V56.13H9.29Zm2.37-3.35h6.89l3.8-18.9h0.08l5.72,18.9h9.08L43,25.46H36.12L32.28,44.4H32.2L26.6,25.46H17.48Zm28.37,0h7.32l2.43-11.7h8.65L56,52.78h7.32L69,25.46H61.67L59.52,35.91H50.87L53,25.46H45.7ZM90,26.2C88.17,25.34,85,25,81.63,25c-6,0-12.17,2.12-12.17,9.16,0,7.71,10.61,6.07,10.61,10.45,0,2.82-3.56,3.25-5.83,3.25a14.25,14.25,0,0,1-6.73-1.57l-1.72,5.56a30.58,30.58,0,0,0,8.46,1.41c6.34,0,13.35-2,13.35-9.51C87.58,35.44,77,36.89,77,33c0-2.19,2.35-2.62,5.25-2.62a13.73,13.73,0,0,1,6,1.25Z" transform="translate(-9.29 -2)"/></g></g></svg>